HIERARCHY
ROOT hip
{
  OFFSET 0 0 0
  CHANNELS 6 Xposition Yposition Zposition Zrotation Yrotation Xrotation
  JOINT abdomen
  {
    OFFSET 0 20.6881 -0.73152
    CHANNELS 3 Zrotation Xrotation Yrotation
    JOINT chest
    {
      OFFSET 0 11.7043 -0.48768
      CHANNELS 3 Zrotation Xrotation Yrotation
      JOINT neck
      {
        OFFSET 0 22.1894 -2.19456
        CHANNELS 3 Zrotation Xrotation Yrotation
        JOINT head
        {
          OFFSET -0.24384 7.07133 1.2192
          CHANNELS 3 Zrotation Xrotation Yrotation
          JOINT leftEye
          {
            OFFSET 4.14528 8.04674 8.04672
            CHANNELS 3 Zrotation Xrotation Yrotation
            End Site
            {
              OFFSET 1 0 0
            }
          }
          JOINT rightEye
          {
            OFFSET -3.6576 8.04674 8.04672
            CHANNELS 3 Zrotation Xrotation Yrotation
            End Site
            {
              OFFSET 1 0 0
            }
          }
        }
      }
      JOINT rCollar
      {
        OFFSET -2.68224 19.2634 -4.8768
        CHANNELS 3 Zrotation Xrotation Yrotation
        JOINT rShldr
        {
          OFFSET -8.77824 -1.95073 1.46304
          CHANNELS 3 Zrotation Xrotation Yrotation
          JOINT rForeArm
          {
            OFFSET -28.1742 -1.7115 0.48768
            CHANNELS 3 Zrotation Xrotation Yrotation
            JOINT rHand
            {
              OFFSET -22.5879 0.773209 7.07136
              CHANNELS 3 Zrotation Xrotation Yrotation
              JOINT rThumb1
              {
                OFFSET -1.2192 -0.487915 3.41376
                CHANNELS 3 Zrotation Xrotation Yrotation
                JOINT rThumb2
                {
                  OFFSET -3.37035 -0.52449 3.41376
                  CHANNELS 3 Zrotation Xrotation Yrotation
                  End Site
                  {
                    OFFSET -1.78271 -1.18214 1.43049
                  }
                }
              }
              JOINT rIndex1
              {
                OFFSET -7.75947 0.938293 5.60832
                CHANNELS 3 Zrotation Xrotation Yrotation
                JOINT rIndex2
                {
                  OFFSET -2.54057 -0.884171 1.56538
                  CHANNELS 3 Zrotation Xrotation Yrotation
                  End Site
                  {
                    OFFSET -1.62519 -0.234802 1.16502
                  }
                }
              }
              JOINT rMid1
              {
                OFFSET -8.24714 1.18213 3.41376
                CHANNELS 3 Zrotation Xrotation Yrotation
                JOINT rMid2
                {
                  OFFSET -3.10165 -0.590103 1.0647
                  CHANNELS 3 Zrotation Xrotation Yrotation
                  End Site
                  {
                    OFFSET -2.48547 -0.328903 0.83742
                  }
                }
              }
              JOINT rRing1
              {
                OFFSET -8.82822 0.546677 1.51678
                CHANNELS 3 Zrotation Xrotation Yrotation
                JOINT rRing2
                {
                  OFFSET -2.60934 -0.819778 -0.0198488
                  CHANNELS 3 Zrotation Xrotation Yrotation
                  End Site
                  {
                    OFFSET -2.33842 -0.294052 0.168128
                  }
                }
              }
              JOINT rPinky1
              {
                OFFSET -8.27202 -0.0477905 -0.4584
                CHANNELS 3 Zrotation Xrotation Yrotation
                JOINT rPinky2
                {
                  OFFSET -1.82734 -0.647385 -0.700984
                  CHANNELS 3 Zrotation Xrotation Yrotation
                  End Site
                  {
                    OFFSET -1.69225 -0.51767 -0.607171
                  }
                }
              }
            }
          }
        }
      }
      JOINT lCollar
      {
        OFFSET 2.68224 19.2634 -4.8768
        CHANNELS 3 Zrotation Xrotation Yrotation
        JOINT lShldr
        {
          OFFSET 8.77824 -1.95073 1.46304
          CHANNELS 3 Zrotation Xrotation Yrotation
          JOINT lForeArm
          {
            OFFSET 28.1742 -1.7115 0.48768
            CHANNELS 3 Zrotation Xrotation Yrotation
            JOINT lHand
            {
              OFFSET 22.5879 0.773209 7.07136
              CHANNELS 3 Zrotation Xrotation Yrotation
              JOINT lThumb1
              {
                OFFSET 1.2192 -0.487915 3.41376
                CHANNELS 3 Zrotation Xrotation Yrotation
                JOINT lThumb2
                {
                  OFFSET 3.37035 -0.52449 3.41376
                  CHANNELS 3 Zrotation Xrotation Yrotation
                  End Site
                  {
                    OFFSET 1.78271 -1.18214 1.43049
                  }
                }
              }
              JOINT lIndex1
              {
                OFFSET 7.75947 0.938293 5.60832
                CHANNELS 3 Zrotation Xrotation Yrotation
                JOINT lIndex2
                {
                  OFFSET 2.54057 -0.884171 1.56538
                  CHANNELS 3 Zrotation Xrotation Yrotation
                  End Site
                  {
                    OFFSET 1.62519 -0.234802 1.16502
                  }
                }
              }
              JOINT lMid1
              {
                OFFSET 8.24714 1.18213 3.41376
                CHANNELS 3 Zrotation Xrotation Yrotation
                JOINT lMid2
                {
                  OFFSET 3.10165 -0.590103 1.0647
                  CHANNELS 3 Zrotation Xrotation Yrotation
                  End Site
                  {
                    OFFSET 2.48547 -0.328903 0.83742
                  }
                }
              }
              JOINT lRing1
              {
                OFFSET 8.82822 0.546677 1.51678
                CHANNELS 3 Zrotation Xrotation Yrotation
                JOINT lRing2
                {
                  OFFSET 2.60934 -0.819778 -0.0198488
                  CHANNELS 3 Zrotation Xrotation Yrotation
                  End Site
                  {
                    OFFSET 2.33842 -0.294052 0.168128
                  }
                }
              }
              JOINT lPinky1
              {
                OFFSET 8.27202 -0.0477905 -0.4584
                CHANNELS 3 Zrotation Xrotation Yrotation
                JOINT lPinky2
                {
                  OFFSET 1.82734 -0.647385 -0.700984
                  CHANNELS 3 Zrotation Xrotation Yrotation
                  End Site
                  {
                    OFFSET 1.69225 -0.51767 -0.607171
                  }
                }
              }
            }
          }
        }
      }
    }
  }
  JOINT rButtock
  {
    OFFSET -8.77824 4.35084 1.2192
    CHANNELS 3 Zrotation Xrotation Yrotation
    JOINT rThigh
    {
      OFFSET 0 -1.70687 -2.19456
      CHANNELS 3 Zrotation Xrotation Yrotation
      JOINT rShin
      {
        OFFSET 0 -36.8199 0.73152
        CHANNELS 3 Zrotation Xrotation Yrotation
        JOINT rFoot
        {
          OFFSET 0.73152 -45.1104 -5.12064
          CHANNELS 3 Zrotation Xrotation Yrotation
          End Site
          {
            OFFSET -1.1221 -3.69964 12.103
          }
        }
      }
    }
  }
  JOINT lButtock
  {
    OFFSET 8.77824 4.35084 1.2192
    CHANNELS 3 Zrotation Xrotation Yrotation
    JOINT lThigh
    {
      OFFSET 0 -1.70687 -2.19456
      CHANNELS 3 Zrotation Xrotation Yrotation
      JOINT lShin
      {
        OFFSET 0 -36.8199 0.73152
        CHANNELS 3 Zrotation Xrotation Yrotation
        JOINT lFoot
        {
          OFFSET -0.73152 -45.1104 -5.12064
          CHANNELS 3 Zrotation Xrotation Yrotation
          End Site
          {
            OFFSET 1.1221 -3.69964 12.103
          }
        }
      }
    }
  }
}
MOTION
Frames:	9
Frame Time:	0.00833333
0.0 0.0 0.0 0.0 0.0 0.0 0.0 0.0 0.0 0.0 0.0 0.0 0.0 0.0 0.0 0.0 0.0 0.0 0.0 0.0 0.0 0.0 0.0 0.0 0.0 0.0 0.0 0.0 0.0 0.0 0.0 0.0 0.0 0.0 0.0 0.0 0.0 0.0 0.0 0.0 0.0 0.0 0.0 0.0 0.0 0.0 0.0 0.0 0.0 0.0 0.0 0.0 0.0 0.0 0.0 0.0 0.0 0.0 0.0 0.0 0.0 0.0 0.0 0.0 0.0 0.0 0.0 0.0 0.0 0.0 0.0 0.0 0.0 0.0 0.0 0.0 0.0 0.0 0.0 0.0 0.0 0.0 0.0 0.0 0.0 0.0 0.0 0.0 0.0 0.0 0.0 0.0 0.0 0.0 0.0 0.0 0.0 0.0 0.0 0.0 0.0 0.0 0.0 0.0 0.0 0.0 0.0 0.0 0.0 0.0 0.0 0.0 0.0 0.0 0.0 0.0 0.0 0.0 0.0 0.0 0.0 0.0 0.0 0.0 0.0 0.0 0.0 0.0 0.0 0.0 0.0 0.0
-80.3426 84.4255 3.6048400000000003 -0.0 0.0 -0.0 -0.0 -4.771896 -180.0 0.0 -4.771896 -180.0 12.037091 11.003981 107.450631 -6.863102 14.769388 -107.723792 -0.0 -0.0 0.0 -0.0 -0.0 0.0 -159.220516 -48.028485 170.415257 -129.108159 52.177169 136.516976 179.305673 -5.586499 144.102757 173.279446 -8.787349 144.716573 -171.706035 -9.388422 89.948992 -22.419414 -38.289507 3.387038 -140.164771 2.326489 115.87806 6.085836 26.519705 -7.646159 89.035113 -81.393384 59.759886 -45.537627 56.068122 40.041938 -145.119466 0.267775 -179.212461 -45.147138 87.648405 68.686802 9.599878 31.055827 8.342915 -150.546363 12.846487 -142.399069 159.220516 -48.028485 -170.415257 129.108159 52.177169 -136.516976 178.421015 1.266199 -144.424749 -170.966071 -15.643643 -143.990006 -2.012629 -1.996597 0.274913 25.571281 21.925858 -21.500233 0.327682 0.529888 -0.186114 1.567685 2.108896 -0.224559 158.521826 -0.192208 -142.144949 15.052499 42.737022 -14.652681 72.350995 72.974965 -90.218005 -10.658936 29.531932 12.354762 145.543006 13.244722 142.14923 -6.016771 3.129852 1.044453 -0.0 0.0 -0.0 -0.0 -0.0 -0.0 7.081855 4.181059 77.332942 -38.390708 -74.728741 -133.183286 -0.0 0.0 -0.0 -0.0 -0.0 -0.0 -7.081855 4.181059 -77.332942 38.390708 -74.728741 133.183286
-80.0553 84.5707 3.73039 -0.0 0.0 -0.0 -0.0 -4.771896 -180.0 -0.0 -4.771896 -180.0 -8.144544 9.765136 -77.762661 11.253376 5.904095 77.877376 0.0 -0.0 -0.0 0.0 -0.0 -0.0 -85.537448 68.182427 88.688908 5.843373 75.512119 13.59165 -88.09946 -75.640643 -109.849742 49.498461 -65.870418 36.106583 -89.136032 38.427358 50.299234 92.219873 -51.306096 39.06284 10.281995 -18.182542 -4.585706 -159.748831 0.54003 105.48545 -36.036059 51.723116 29.832321 -2.585961 14.44077 -0.134276 -0.000142 -0.018533 -0.005823 0.010927 -0.131637 -0.01305 5.663198 16.872151 5.087837 -12.42015 -24.674552 -11.534691 155.460052 -3.227798 -161.777534 -23.198038 -15.362493 -15.83025 178.770001 -0.091507 -178.864149 5.962116 18.699821 -0.336095 94.791592 37.828669 -54.283857 -19.121305 -27.830067 -23.316901 77.667448 43.02965 -64.538509 162.219818 -4.652776 -123.149246 151.476684 17.84174 -137.538824 -92.099067 -79.570793 -60.213008 145.119466 0.267753 179.212454 145.247246 1.749572 179.389798 140.004289 -2.493923 137.117745 -5.142756 0.194924 1.127212 -0.0 0.0 -0.0 -0.0 -2.27635 -180.0 -6.880793 -5.921355 -107.859822 -11.465574 25.060334 -64.504817 -0.0 0.0 -0.0 -0.0 -2.27635 -180.0 6.880793 -5.921355 107.859822 11.465574 25.060334 64.504817
-79.7618 84.7232 3.8672 -0.0 -0.0 -0.0 -0.0 0.0 -0.0 -0.0 -0.0 0.0 -3.941986 17.932259 -132.771391 10.667824 15.013811 131.983833 -0.0 -0.0 0.0 -0.0 -0.0 0.0 -142.973735 39.431617 147.390037 -151.980852 -2.335175 170.955575 4.319211 31.47947 0.250018 -4.884746 15.456019 0.130777 0.468632 -0.46324 -0.07015 -1.11138 1.253141 0.610283 174.382035 -63.05997 113.272685 -59.602002 49.578542 54.808158 -15.423151 32.961633 11.295888 24.304976 -61.238386 3.262267 -145.121957 1.974539 -179.748654 22.493638 34.800538 -5.514876 -81.323898 -51.182704 -79.740822 -84.581054 -55.303522 -85.214561 155.716846 -4.925325 -162.135615 125.749522 53.764515 -142.833519 178.320492 -40.253216 -143.498802 -169.604966 -19.435695 -143.448592 0.441471 0.435329 -0.069465 -25.907472 -42.308402 16.43522 173.762554 -52.872945 -119.8247 72.942782 50.851365 -66.645928 0.571049 1.648356 -0.322148 14.488848 33.309651 -8.933174 -0.004562 0.876694 -0.275398 165.833709 -1.436335 -172.120336 144.858825 11.079433 141.543689 -45.824929 79.153445 7.297531 -180.0 75.749642 -0.0 -180.0 73.473292 -180.0 -3.230025 -2.621584 -151.530442 -167.988512 -32.69358 43.7436 -180.0 75.749642 -0.0 -180.0 73.473292 -180.0 3.230025 -2.621584 151.530442 167.988512 -32.69358 -43.7436
-79.4511 85.0468 3.85949 -0.0 0.0 -0.0 -0.0 -4.771896 -180.0 0.0 -4.771896 -180.0 10.50515 4.498364 68.886613 -7.991713 8.18131 -68.727902 0.0 0.0 0.0 0.0 0.0 0.0 -155.417258 -2.951435 161.718542 58.728119 -68.140178 38.738891 166.811349 -0.449621 170.453181 -51.23607 69.958412 34.082018 2.012629 -1.996597 -0.274913 -30.361595 24.224434 25.951262 -140.763228 1.380556 116.229033 -179.07065 -59.473419 112.488297 -0.057679 0.167876 0.032027 -166.911652 -6.019318 143.46077 -67.6077 -72.074511 -84.373972 21.200083 -43.156806 2.865546 -8.191002 -17.575975 -7.729117 0.66699 0.243087 0.867116 155.417258 -2.951435 -161.718542 -58.728119 -68.140178 -38.738891 -100.832241 79.516384 129.370953 178.704428 16.465482 -145.046076 -81.971691 -50.091534 -32.722881 57.484978 31.519305 -19.420664 148.886119 -12.609784 -120.244776 -8.036268 25.411263 5.559098 160.673322 -6.667841 -143.245105 -13.712026 -21.88571 1.233052 -0.000474 0.063775 -0.020036 -0.007757 -0.179335 0.03455 -7.223826 22.273772 -6.417634 78.051817 -53.815025 75.017295 -0.0 0.0 -0.0 -0.0 -2.27635 -180.0 -6.880793 -5.921355 -107.859822 -11.465574 25.060334 -64.504817 -0.0 0.0 -0.0 -0.0 -2.27635 -180.0 6.880793 -5.921355 107.859822 11.465574 25.060334 64.504817
-80.4369 84.7963 2.6967 -0.0 0.0 -0.0 0.0 0.0 0.0 0.0 0.0 -0.0 -2.189902 0.70575 -13.10212 2.292863 -0.190556 13.119422 0.0 -0.0 -0.0 0.0 -0.0 -0.0 -142.973735 39.431617 147.390037 -175.665045 -77.013917 157.261277 87.11502 -75.379034 78.896818 -27.091257 57.338549 12.791298 71.831195 -48.263725 25.791675 -109.077566 35.249479 75.684389 -0.327682 0.529888 0.186114 -138.529582 28.67233 97.770781 173.123457 -66.297779 137.614274 -154.070631 14.416751 137.012449 0.004672 0.917785 0.288305 -86.805871 78.917224 89.809086 -156.864532 55.54159 -150.329136 51.076186 78.472832 -14.200809 159.221365 -48.725035 -170.567307 2.026547 25.440805 -24.767029 -70.185435 89.518431 66.852321 5.092315 16.088354 -0.165535 171.603563 -9.286185 -89.949897 8.317035 -49.168552 -5.522165 0.327682 0.529888 -0.186114 178.664693 -21.036755 -109.096165 82.840589 61.110826 -74.532293 5.767366 26.807864 -2.871944 0.014868 -1.323148 0.415899 3.651993 30.558483 -5.230698 -12.252484 41.424931 -10.280249 0.446928 -0.608486 2.234615 -0.0 0.0 -0.0 -0.0 -2.27635 -180.0 -6.880793 -5.921355 -107.859822 -60.287165 61.721357 -12.179709 -0.0 0.0 -0.0 -0.0 -2.27635 -180.0 6.880793 -5.921355 107.859822 11.465574 25.060334 64.504817
-80.9043 84.721 2.25539 -0.0 -0.0 -0.0 -0.0 0.0 -0.0 -0.0 -0.0 0.0 -3.941986 17.932259 -132.771391 10.667824 15.013811 131.983833 -0.0 -0.0 0.0 -0.0 -0.0 0.0 -142.973735 39.431617 147.390037 -151.980852 -2.335175 170.955575 110.600557 -71.964662 80.785215 -170.34391 38.040307 141.897918 -89.136032 38.427358 50.299234 50.988989 -40.737233 24.60493 -90.225558 41.072425 75.796697 -156.061014 6.831193 122.510169 -39.289155 53.36602 32.877985 -167.301477 -15.40219 146.874208 0.000273 0.036338 0.011416 -3.390216 29.345451 4.668078 -168.137142 80.281255 -148.039637 -137.788168 -11.499041 -132.653987 155.716846 -4.925325 -162.135615 -12.417876 17.278142 -18.457799 -2.414051 -46.144656 34.377214 -166.872417 -26.422792 -142.138933 2.813987 2.754169 -0.498244 147.059132 -55.612993 -118.506442 14.228542 19.203392 -9.559881 13.256026 18.591993 -0.257067 39.289155 53.36602 -32.877985 8.715465 29.922457 -4.286341 0.021291 -1.725169 0.542387 165.610087 -1.214872 -171.604242 26.564207 -38.860901 25.60587 -2.412185 2.123059 -2.137682 -180.0 75.749642 -0.0 -180.0 73.473292 -180.0 -3.818269 -2.872352 -145.985039 55.45762 -47.175368 -32.094048 -180.0 75.749642 -0.0 -180.0 73.473292 -180.0 3.818269 -2.872352 145.985039 -55.45762 -47.175368 32.094048
-80.8833 84.7165 2.24582 -0.0 0.0 -0.0 0.0 0.0 0.0 0.0 0.0 -0.0 -2.189902 0.70575 -13.10212 2.292863 -0.190556 13.119422 0.0 -0.0 -0.0 0.0 -0.0 -0.0 -142.973735 39.431617 147.390037 -175.665045 -77.013917 157.261277 87.11502 -75.379034 78.896818 -27.091257 57.338549 12.791298 -4.034931 3.931563 0.75474 -110.375327 0.24806 100.265412 -172.896918 -51.894009 120.180804 90.878237 -62.251806 28.436689 173.123457 -66.297779 137.614274 -87.564119 61.043458 80.443978 0.004672 0.917785 0.288305 -16.092858 61.967914 18.328725 -43.363118 -47.546704 -42.161842 -23.135493 -42.214744 -23.120189 159.221365 -48.725035 -170.567307 2.026547 25.440805 -24.767029 -70.185435 89.518431 66.852321 5.092315 16.088354 -0.165535 173.770775 -11.439911 -89.891324 145.433983 8.036638 -75.182033 19.170572 24.114561 -13.380841 -80.500067 -66.168826 -39.96988 82.840589 61.110826 -74.532293 -2.657231 2.607046 2.572903 70.641094 72.965227 -88.425717 167.919021 46.110754 176.199592 143.937873 8.265083 140.720099 144.684197 10.913113 141.761536 -0.0 0.0 -0.0 -0.0 -2.27635 -180.0 -6.880793 -5.921355 -107.859822 -60.287165 61.721357 -12.179709 -0.0 0.0 -0.0 -0.0 -2.27635 -180.0 6.880793 -5.921355 107.859822 11.465574 25.060334 64.504817
-80.8396 84.7216 2.24896 -0.0 -0.0 -0.0 -0.0 0.0 -0.0 0.0 -0.0 -0.0 9.579663 3.263211 60.169506 -7.606876 6.687135 -59.997951 -0.0 0.0 -0.0 -0.0 0.0 -0.0 -155.569543 -3.943241 161.929333 98.101882 -75.827303 75.712515 165.19802 -0.046935 166.948514 -91.796979 74.497327 72.460592 71.831195 -48.263725 25.791675 -12.703486 -38.80789 -29.817847 -90.225558 41.072425 75.796697 -69.227452 62.449538 48.086966 -0.057679 0.167876 0.032027 -44.505175 58.240571 35.366439 -145.101024 -1.437309 -178.676528 -143.14164 -17.618468 -176.972882 -145.173549 12.06758 -141.82295 49.277067 80.201694 -10.368461 9.651699 34.836178 -11.199233 13.947974 -74.820692 25.030574 -170.016727 -44.390432 -136.577584 -178.362373 7.308402 -145.338128 -6.463714 -6.452652 0.634888 124.67689 -12.666225 -112.471785 46.208543 39.652969 -36.318179 61.608935 56.895203 -36.665416 160.09819 -4.901163 -142.968881 -6.502316 -0.106806 -0.170896 -0.004874 1.770919 -0.556328 2.798261 25.989722 -3.612678 -5.663198 16.872151 -5.087837 -12.712639 42.178945 -7.413281 -180.0 75.749642 -0.0 -180.0 73.473292 -180.0 -3.818269 -2.872352 -145.985039 55.45762 -47.175368 -32.094048 -180.0 75.749642 -0.0 -180.0 73.473292 -180.0 3.818269 -2.872352 145.985039 -55.45762 -47.175368 32.094048
